<svg width="24" height="18" viewBox="0 0 24 18" fill="none" xmlns="http://www.w3.org/2000/svg">
<path d="M23.5234 8.31054C20.9841 2.96144 17.1457 0.26947 12.0002 0.26947C6.85194 0.26947 3.01623 2.96143 0.476941 8.31322C0.375089 8.52889 0.322266 8.76444 0.322266 9.00295C0.322266 9.24146 0.375089 9.47701 0.476941 9.69269C3.01623 15.0418 6.85462 17.7338 12.0002 17.7338C17.1484 17.7338 20.9841 15.0418 23.5234 9.69001C23.7296 9.25608 23.7296 8.75251 23.5234 8.31054ZM12.0002 15.8052C7.67962 15.8052 4.51623 13.6141 2.28498 9.00161C4.51623 4.38911 7.67962 2.19804 12.0002 2.19804C16.3207 2.19804 19.4841 4.38911 21.7153 9.00161C19.4868 13.6141 16.3234 15.8052 12.0002 15.8052ZM11.893 4.28733C9.28944 4.28733 7.17873 6.39804 7.17873 9.00161C7.17873 11.6052 9.28944 13.7159 11.893 13.7159C14.4966 13.7159 16.6073 11.6052 16.6073 9.00161C16.6073 6.39804 14.4966 4.28733 11.893 4.28733ZM11.893 12.0016C10.235 12.0016 8.89301 10.6596 8.89301 9.00161C8.89301 7.34358 10.235 6.00161 11.893 6.00161C13.551 6.00161 14.893 7.34358 14.893 9.00161C14.893 10.6596 13.551 12.0016 11.893 12.0016Z" fill="#8C8C8C"/>
</svg>
